<svg xmlns="http://www.w3.org/2000/svg" viewBox="0 0 122.88 38.48" id="whatsapp-share-button"><path fill="#2ab200" fill-rule="evenodd" d="M118.69 0H4.19C1.89 0 0 1.89 0 4.19V34.3c0 2.3 1.89 4.19 4.19 4.19h114.5c2.3 0 4.19-1.89 4.19-4.19V4.19c0-2.3-1.89-4.19-4.19-4.19z" clip-rule="evenodd"></path><path fill="#fff" d="m51.99 21.34 3.13-.23c.07.59.21 1.04.42 1.34.34.5.82.75 1.46.75.47 0 .83-.13 1.09-.38.26-.26.38-.55.38-.89 0-.32-.12-.61-.36-.86s-.8-.49-1.68-.72c-1.45-.37-2.47-.88-3.09-1.5-.62-.62-.93-1.42-.93-2.39 0-.63.16-1.23.48-1.8.32-.57.79-1.01 1.43-1.34.64-.32 1.51-.48 2.62-.48 1.36 0 2.4.29 3.12.89.72.59 1.14 1.53 1.28 2.81l-3.1.21c-.08-.56-.26-.97-.52-1.23-.27-.26-.63-.38-1.1-.38-.38 0-.67.1-.87.28s-.29.42-.29.69c0 .2.08.37.24.53.15.16.52.31 1.1.46 1.44.36 2.47.73 3.09 1.1.62.37 1.08.82 1.36 1.37.28.54.42 1.16.42 1.83a4.4 4.4 0 0 1-.57 2.2c-.38.67-.91 1.18-1.59 1.53-.68.35-1.53.52-2.57.52-1.81 0-3.07-.41-3.77-1.22-.69-.81-1.09-1.84-1.18-3.09zm-26.7-.14c-.24-.12-1.44-.71-1.67-.79-.22-.08-.39-.12-.55.12-.16.24-.63.79-.77.96-.14.16-.28.18-.53.06-.24-.12-1.03-.38-1.96-1.21-.72-.65-1.22-1.45-1.36-1.69-.14-.24-.02-.38.11-.5.11-.11.24-.28.37-.43s.16-.24.24-.41c.08-.16.04-.3-.02-.43-.06-.12-.55-1.32-.75-1.81-.2-.48-.4-.41-.55-.42-.14-.01-.3-.01-.47-.01s-.43.06-.65.3c-.22.24-.85.84-.85 2.04s.87 2.36 1 2.53c.12.16 1.72 2.63 4.17 3.68.58.25 1.04.4 1.39.52.58.18 1.12.16 1.54.1.47-.07 1.44-.59 1.65-1.16.2-.57.2-1.06.14-1.16-.07-.11-.23-.17-.48-.29zm2.46-8.95a9.68 9.68 0 0 0-6.91-2.86c-5.38 0-9.76 4.38-9.76 9.76 0 1.72.45 3.4 1.3 4.88L11 29.09l5.18-1.36c1.43.78 3.03 1.19 4.66 1.19 5.38 0 9.76-4.38 9.76-9.76 0-2.61-1.01-5.06-2.85-6.91zm-6.91 15.03c-1.46 0-2.89-.39-4.13-1.13l-.3-.18-3.07.8.82-2.99-.19-.31a8.016 8.016 0 0 1-1.24-4.32c0-4.48 3.64-8.12 8.12-8.12 2.17 0 4.21.85 5.74 2.38a8.08 8.08 0 0 1 2.37 5.74c-.01 4.48-3.65 8.13-8.12 8.13zm42.29-14.23h3.29v4.33h3.61v-4.33h3.31v12.39h-3.31v-5.02h-3.61v5.02h-3.29V13.05zM82.1 23.39h-3.74l-.54 2.04h-3.37l4.02-12.39h3.61l4 12.39h-3.45l-.53-2.04zm-.69-2.68-1.17-4.45-1.17 4.45h2.34zm5.77 4.73V13.05h5.5c1.02 0 1.8.1 2.33.31.54.2.98.58 1.3 1.13.33.55.5 1.22.5 2.01 0 .69-.13 1.28-.38 1.78s-.6.91-1.04 1.22c-.28.2-.67.36-1.16.49.39.15.68.3.86.46.12.1.3.32.53.65.23.33.38.59.46.77l1.6 3.58h-3.73l-1.76-3.78c-.23-.49-.42-.81-.6-.95-.24-.19-.51-.29-.81-.29h-.29v5.02h-3.31v-.01zm3.31-7.36h1.39c.15 0 .44-.06.88-.17.22-.05.4-.18.53-.39.14-.21.21-.45.21-.72 0-.4-.11-.71-.33-.92-.22-.21-.63-.32-1.23-.32h-1.45v2.52zm8.25-5.03h8.83v2.65h-5.52v1.97h5.11v2.53h-5.11v2.44h5.68v2.8h-8.99V13.05z"></path><path fill="#26a000" d="M40.66 0v38.48h-2.39V0h2.39z"></path></svg>